<svg id="Capa_1" enable-background="new 0 0 511.991 511.991" height="512" viewBox="0 0 511.991 511.991" width="512" xmlns="http://www.w3.org/2000/svg"><g><g><g><path d="m336.224 319.457c2.616-12.766 2.616-25.531 0-38.296-2.484-12.117-12.931-20.984-25.296-21.291 12.365-.308 22.812-9.175 25.296-21.291 2.616-12.765 2.616-25.531 0-38.296-2.484-12.116-12.931-20.983-25.296-21.291 12.365-.308 22.812-9.175 25.296-21.291 2.617-12.765 2.617-25.531 0-38.296-2.484-12.117-12.931-20.983-25.296-21.291-91.015-2.265-182.03-2.265-273.046 0-12.365.308-22.812 9.175-25.296 21.291-2.617 12.765-2.617 25.531 0 38.296 2.484 12.117 12.931 20.984 25.296 21.291-12.365.308-22.812 9.175-25.296 21.291-2.617 12.766-2.617 25.531 0 38.296 2.484 12.117 12.931 20.984 25.296 21.291-12.365.308-22.812 9.175-25.296 21.291-2.617 12.765-2.617 25.531 0 38.296 2.484 12.116 12.931 20.983 25.296 21.291-12.365.308-22.812 9.175-25.296 21.291-2.617 12.765-2.617 25.531 0 38.296 2.484 12.116 12.931 20.983 25.296 21.291-12.365.308-22.812 9.175-25.296 21.291-2.617 12.765-2.617 25.531 0 38.296 2.484 12.117 12.931 20.983 25.296 21.291 91.016 2.265 182.031 2.265 273.046 0 12.365-.308 22.812-9.175 25.296-21.291 2.616-12.765 2.616-25.531 0-38.296-2.484-12.116-12.931-20.983-25.296-21.291 12.365-.308 22.812-9.175 25.296-21.291 2.616-12.766 2.616-25.531 0-38.296-2.484-12.117-12.931-20.984-25.296-21.291 12.365-.307 22.812-9.174 25.296-21.291z" fill="#f6e266"/><path d="m105.956 281.159c-2.62 12.765-2.62 25.531 0 38.296 2.478 12.123 12.928 20.983 25.296 21.289-12.368.316-22.818 9.176-25.296 21.299-2.62 12.765-2.62 25.531 0 38.296 2.478 12.113 12.928 20.983 25.296 21.289-12.368.306-22.818 9.176-25.296 21.289-2.62 12.765-2.62 25.531 0 38.296 1.886 9.238 8.412 18.659 16.884 22.747-28.314-.265-56.638-.754-84.963-1.458-12.358-.306-22.808-9.166-25.296-21.289-2.61-12.765-2.61-25.531 0-38.296 2.488-12.113 12.939-20.983 25.296-21.289-12.358-.306-22.808-9.176-25.296-21.289-2.61-12.765-2.61-25.531 0-38.296 2.488-12.123 12.939-20.983 25.296-21.299-12.358-.306-22.808-9.166-25.296-21.289-2.61-12.765-2.61-25.531 0-38.296 2.488-12.113 12.939-20.983 25.296-21.289-12.358-.306-22.808-9.176-25.296-21.289-2.61-12.765-2.61-25.531 0-38.296 2.488-12.123 12.939-20.983 25.296-21.299-12.358-.306-22.808-9.166-25.296-21.289-2.61-12.765-2.61-25.531 0-38.296 2.488-12.113 12.939-20.983 25.296-21.289 28.324-.703 56.648-1.193 84.963-1.458-8.473 4.089-14.998 13.51-16.884 22.747-2.62 12.765-2.62 25.531 0 38.296 2.478 12.123 12.928 20.983 25.296 21.289-12.368.316-22.818 9.176-25.296 21.299-2.62 12.765-2.62 25.531 0 38.296 2.478 12.113 12.928 20.983 25.296 21.289-12.368.306-22.819 9.176-25.296 21.289z" fill="#eab14d"/></g><g><path d="m368.818 504.491h-52.063c-81.485 0-147.541-66.056-147.541-147.541s66.056-147.541 147.541-147.541h52.063" fill="#eab14d"/><circle cx="353.818" cy="356.95" fill="#f6e266" r="147.541"/><circle cx="353.818" cy="356.95" fill="#f6e266" r="108.563"/><path d="m371.127 345.172c-12.936-3.766-27.265-8.33-35.462-13.624-3.233-2.088-3.198-5.504-2.889-7.354.692-4.152 4.149-9.262 11.776-11.154 17.512-4.345 28.934 3.532 29.412 3.87 5.229 3.694 12.462 2.45 16.158-2.779 3.695-5.229 2.45-12.463-2.779-16.158-2.156-1.523-10.313-6.76-22.787-8.705v-4.251c0-6.403-5.19-11.593-11.593-11.593s-11.593 5.19-11.593 11.593v4.968c-.793.168-1.593.35-2.402.551-15.264 3.787-26.672 15.502-29.063 29.846-2.055 12.323 2.995 24.065 13.179 30.643 8.629 5.574 20.67 10.328 41.561 16.41 10.054 2.927 15.244 8.73 14.238 15.922-1.585 11.338-14.568 17.522-25.98 17.585-14.34.074-19.423-.687-30.349-6.575-5.638-3.037-12.668-.93-15.705 4.707s-.929 12.668 4.707 15.705c11.674 6.289 19.845 8.427 29.815 9.085v5.02c0 6.403 5.19 11.593 11.593 11.593s11.593-5.19 11.593-11.593v-5.916c21.792-4.368 35.066-20.493 37.29-36.401 2.011-14.385-4.828-33.858-30.72-41.395z" fill="#eab14d"/></g><g fill="#f6e781"><path d="m380.875 90.699 1.462 1.462c5.158 5.158 13.429 5.441 18.928.648l16.914-14.743c6.059-5.281 6.377-14.588.694-20.271l-3.634-3.634c-5.683-5.683-14.99-5.364-20.271.694l-14.743 16.914c-4.792 5.501-4.508 13.772.65 18.93z"/><path d="m415.708 149.962.535 1.998c1.888 7.046 8.909 11.427 16.068 10.026l22.02-4.311c7.887-1.544 12.817-9.445 10.737-17.208l-1.33-4.964c-2.08-7.763-10.3-12.141-17.902-9.534l-21.225 7.277c-6.901 2.365-10.791 9.67-8.903 16.716z"/><path d="m321.077 56.793 1.998.535c7.046 1.888 14.351-2.002 16.716-8.903l7.277-21.225c2.606-7.602-1.771-15.822-9.534-17.902l-4.964-1.33c-7.763-2.08-15.664 2.85-17.208 10.737l-4.31 22.02c-1.402 7.158 2.979 14.18 10.025 16.068z"/></g></g><g><path d="m353.818 201.909h-9.663c-.181-1.043-.373-2.088-.585-3.132-1.65-8.063-5.985-14.948-11.974-19.786 5.988-4.838 10.323-11.722 11.973-19.783 2.812-13.707 2.812-27.607.001-41.312-3.209-15.665-16.553-26.884-32.451-27.282-74.79-1.862-150.708-2.189-225.649-.972-4.142.067-7.444 3.479-7.377 7.621s3.45 7.445 7.621 7.377c74.736-1.214 150.447-.888 225.031.969 8.875.223 16.331 6.513 18.131 15.299 2.4 11.707 2.4 23.579-.001 35.289-1.795 8.772-9.233 15.055-18.095 15.294h-272.746c-8.86-.239-16.302-6.525-18.104-15.292-2.394-11.711-2.394-23.586-.002-35.288 1.807-8.788 9.267-15.081 18.143-15.303 5.852-.148 11.702-.276 17.553-.405l.213-.005c4.141-.091 7.424-3.521 7.333-7.663s-3.494-7.418-7.663-7.334l-.212.005c-5.867.129-11.734.258-17.601.406-15.891.398-29.238 11.615-32.461 27.286-2.8 13.703-2.8 27.6.002 41.311 1.656 8.061 5.995 14.944 11.983 19.781-5.988 4.838-10.328 11.723-11.985 19.788-2.8 13.703-2.8 27.6.002 41.312 1.657 8.059 5.997 14.942 11.984 19.779-5.988 4.838-10.329 11.724-11.986 19.789-2.8 13.704-2.8 27.6.002 41.313 1.657 8.06 5.997 14.942 11.984 19.779-5.988 4.838-10.329 11.723-11.985 19.788-2.802 13.699-2.802 27.596.001 41.313 1.657 8.057 5.995 14.939 11.98 19.775-5.986 4.838-10.324 11.723-11.981 19.792-2.802 13.7-2.802 27.594.001 41.302 3.22 15.668 16.566 26.89 32.46 27.288 45.306 1.125 90.98 1.689 136.648 1.689 35.944 0 71.889-.349 107.615-1.048.968-.019 1.69-.858 2.179-2.122 10.521 2.262 21.431 3.463 32.618 3.463h37.063c85.49 0 155.041-69.551 155.041-155.041s-69.551-155.04-155.041-155.04zm-333.89-.119c1.803-8.775 9.246-15.06 18.106-15.299h272.746c8.862.239 16.3 6.522 18.094 15.287.009.044.015.088.024.131h-12.142c-45.227 0-85.989 19.469-114.356 50.462h-164.366c-8.859-.239-16.302-6.525-18.104-15.292-2.394-11.71-2.394-23.586-.002-35.289zm0 80.88c1.803-8.775 9.246-15.06 18.106-15.299h152.245c-13.637 19.198-23.018 41.62-26.755 65.88h-125.491c-8.858-.239-16.301-6.525-18.103-15.291-2.394-11.711-2.394-23.587-.002-35.29zm0 80.88c1.803-8.775 9.246-15.061 18.106-15.3h123.929c-.16 2.88-.249 5.78-.249 8.699 0 20.185 3.881 39.479 10.93 57.181h-134.61c-8.859-.239-16.302-6.525-18.104-15.292-2.395-11.714-2.395-23.589-.002-35.288zm18.141 131.463c-8.875-.223-16.335-6.519-18.141-15.305-2.394-11.707-2.394-23.579-.001-35.278 1.804-8.782 9.243-15.068 18.098-15.299h141.551c15.318 28.994 39.556 52.573 69.041 67.06-70.11.945-140.783.556-210.548-1.178zm138.645-138.063c0-62.965 41.773-116.352 99.058-133.918-46.016 26.921-76.996 76.866-76.996 133.918s30.98 106.997 76.996 133.918c-57.285-17.566-99.058-70.953-99.058-133.918zm177.104 140.041c-77.219 0-140.041-62.822-140.041-140.041s62.822-140.041 140.041-140.041 140.041 62.822 140.041 140.041-62.823 140.041-140.041 140.041z"/><path d="m353.821 240.891c-64.001 0-116.07 52.064-116.07 116.06s52.069 116.06 116.07 116.06c22.695 0 44.677-6.553 63.565-18.95 3.463-2.272 4.428-6.922 2.155-10.385s-6.922-4.427-10.386-2.155c-16.438 10.788-35.572 16.49-55.335 16.49-55.73 0-101.07-45.335-101.07-101.06s45.34-101.06 101.07-101.06c55.725 0 101.06 45.335 101.06 101.06 0 24.426-8.829 47.997-24.861 66.369-2.723 3.121-2.4 7.859.721 10.582 3.118 2.723 7.857 2.402 10.582-.72 18.416-21.105 28.559-48.178 28.559-76.231 0-63.996-52.064-116.06-116.06-116.06z"/><path d="m352.865 393.441c-13.254.068-16.985-.414-26.755-5.678-9.271-4.993-20.872-1.512-25.864 7.753-4.994 9.268-1.517 20.871 7.752 25.865 9.45 5.091 17.221 7.9 25.949 9.227.874 9.724 9.069 17.37 19.017 17.37 10.527 0 19.093-8.565 19.093-19.093v-.079c22.643-6.919 34.973-25.135 37.218-41.2 1.368-9.786-.741-19.815-5.941-28.242-6.213-10.069-16.625-17.466-30.109-21.392-11.469-3.339-25.52-7.755-33.063-12.453.004-.029.008-.06.014-.092.104-.622.889-3.793 6.184-5.107 14.016-3.479 22.933 2.479 23.278 2.716 8.597 6.073 20.534 4.021 26.612-4.577 6.074-8.599 4.021-20.536-4.577-26.611-2.136-1.509-9.125-6.019-19.707-8.71-.947-9.649-9.107-17.213-19.001-17.213-10.251 0-18.641 8.119-19.076 18.264-16.516 5.308-28.674 18.72-31.381 34.961-2.553 15.321 3.772 29.95 16.509 38.176 9.282 5.996 21.895 11.011 43.533 17.311 2.884.839 9.524 3.269 8.907 7.683-.953 6.811-10.394 11.076-18.592 11.121zm13.877-33.208c-20.145-5.865-31.613-10.358-39.588-15.508-7.631-4.929-11.405-13.785-9.851-23.111 1.898-11.392 11.111-20.733 23.472-23.799.724-.18 1.439-.343 2.148-.493 3.467-.734 5.946-3.794 5.946-7.337v-4.968c0-2.257 1.837-4.093 4.094-4.093s4.093 1.836 4.093 4.093v4.251c0 3.696 2.692 6.841 6.345 7.411 11.13 1.735 18.292 6.485 19.614 7.42 1.844 1.302 2.284 3.862.983 5.704-1.304 1.843-3.865 2.285-5.712.979-1.487-1.048-15.105-10.09-35.54-5.02-11.154 2.767-16.286 10.7-17.368 17.2-1.025 6.145 1.299 11.71 6.217 14.888 9.009 5.818 23.979 10.607 37.435 14.525 21.271 6.192 27.063 21.187 25.389 33.155-1.704 12.19-12.055 26.221-31.336 30.086-3.505.702-6.026 3.78-6.026 7.354v5.916c0 2.257-1.836 4.093-4.093 4.093s-4.094-1.836-4.094-4.093v-5.02c0-3.95-3.064-7.224-7.006-7.484-8.107-.535-15.411-2.094-26.751-8.204-1.987-1.071-2.732-3.558-1.662-5.545.739-1.371 2.153-2.151 3.611-2.151.655 0 1.319.157 1.935.489 12.213 6.581 18.572 7.548 33.947 7.472 7.327-.041 14.622-2.051 20.54-5.662 7.231-4.411 11.786-10.94 12.827-18.385.583-4.164.889-18.207-19.569-24.163z"/><path d="m377.033 97.465c4.144 4.144 9.628 6.238 15.125 6.238 5.002 0 10.016-1.735 14.035-5.239l16.914-14.743c4.448-3.877 7.115-9.483 7.318-15.381.202-5.898-2.075-11.674-6.248-15.847l-3.634-3.634c-4.172-4.172-9.929-6.442-15.846-6.248-5.898.202-11.505 2.869-15.384 7.318l-14.742 16.914c-7.354 8.437-6.914 21.245.999 29.159zm8.848-20.767 14.741-16.914c1.174-1.347 2.804-2.122 4.589-2.183.076-.003.151-.004.227-.004 1.7 0 3.29.658 4.499 1.867l3.634 3.634c1.264 1.263 1.925 2.942 1.864 4.727-.062 1.785-.837 3.414-2.183 4.587l-16.914 14.743c-2.517 2.195-6.337 2.062-8.697-.297l-1.462-1.462s0 0-.001-.001c-2.36-2.36-2.491-6.18-.297-8.697z"/><path d="m408.464 151.903.535 1.998c2.535 9.464 11.184 15.842 20.668 15.842 1.35 0 2.717-.129 4.085-.397l22.02-4.311c5.792-1.134 10.905-4.655 14.029-9.662s4.039-11.147 2.512-16.847l-1.33-4.964c-1.527-5.7-5.391-10.56-10.6-13.334-5.208-2.773-11.396-3.267-16.979-1.353l-21.226 7.277c-10.586 3.628-16.61 14.939-13.714 25.751zm18.579-11.563 21.226-7.277c1.688-.579 3.488-.436 5.063.404 1.577.84 2.699 2.252 3.162 3.977l1.33 4.964c.462 1.725.196 3.51-.75 5.025-.945 1.515-2.431 2.539-4.184 2.882l-22.02 4.311c-3.28.643-6.52-1.382-7.384-4.606l-.535-1.998c-.862-3.226.934-6.6 4.092-7.682z"/><path d="m319.135 64.037 1.998.536c1.831.491 3.676.725 5.496.725 8.926 0 17.241-5.646 20.257-14.44l7.276-21.224c1.914-5.582 1.421-11.771-1.353-16.979-2.773-5.209-7.634-9.073-13.335-10.601l-4.964-1.33c-5.699-1.527-11.842-.613-16.848 2.512-5.007 3.124-8.528 8.237-9.662 14.028l-4.311 22.02c-2.149 10.983 4.636 21.856 15.446 24.753zm-.724-21.872 4.311-22.02c.343-1.753 1.366-3.239 2.882-4.184 1.029-.642 2.183-.971 3.357-.971.555 0 1.114.073 1.668.222l4.964 1.33c1.726.462 3.138 1.585 3.978 3.162.839 1.576.982 3.375.402 5.064l-7.276 21.224c-1.083 3.157-4.461 4.955-7.68 4.091l-1.997-.535c-.001 0-.001 0-.002 0-3.225-.864-5.248-4.107-4.607-7.383z"/></g></g></svg>