<svg height="512" viewBox="0 0 512 512" width="512" xmlns="http://www.w3.org/2000/svg"><g id="Fill_out_line" data-name="Fill out line"><path d="m176 352h160v48h-160z" fill="#f4e2a0"/><circle cx="256" cy="208" fill="#f4c433" r="136"/><circle cx="256" cy="208" fill="#f4e2a0" r="112"/><rect fill="#90d2ed" height="32" rx="16" width="208" x="152" y="328"/><rect fill="#90d2ed" height="32" rx="16" width="208" x="152" y="392"/><path d="m176 424 32 32h96l32-32z" fill="#f4e2a0"/><path d="m224 456h64a0 0 0 0 1 0 0 32 32 0 0 1 -32 32 32 32 0 0 1 -32-32 0 0 0 0 1 0 0z" fill="#37a4c9"/><path d="m256 64c-79.40186 0-144 64.59814-144 144a143.07829 143.07829 0 0 0 42.001 101.64746l11.333-11.29394a128 128 0 1 1 181.332 0l11.333 11.29394a143.07829 143.07829 0 0 0 42.001-101.64746c0-79.40186-64.59814-144-144-144z"/><path d="m309.5918 297.14844 8.25781 13.7041a120.02175 120.02175 0 1 0 -123.69922 0l8.25781-13.7041a104 104 0 1 1 107.1836 0z"/><path d="m304 184v-4a36.04061 36.04061 0 0 0 -36-36h-4v-16h-16v16h-4a36 36 0 0 0 0 72h24a20 20 0 0 1 0 40h-24a20.02292 20.02292 0 0 1 -20-20v-4h-16v4a36.04061 36.04061 0 0 0 36 36h4v16h16v-16h4a36 36 0 0 0 0-72h-24a20 20 0 0 1 0-40h24a20.02292 20.02292 0 0 1 20 20v4z"/><path d="m368 344a24.0275 24.0275 0 0 0 -24-24h-176a24 24 0 0 0 0 48v16a24 24 0 0 0 0 48h4.68652l29.65674 29.65674a7.99877 7.99877 0 0 0 5.65674 2.34326h8.80493a40.004 40.004 0 0 0 78.39014 0h8.80493a7.99877 7.99877 0 0 0 5.65674-2.34326l29.65674-29.65674h4.68652a24 24 0 0 0 0-48v-16a24.0275 24.0275 0 0 0 24-24zm-208 0a8.00917 8.00917 0 0 1 8-8h176a8 8 0 0 1 0 16h-176a8.00917 8.00917 0 0 1 -8-8zm96 136a24.03824 24.03824 0 0 1 -22.62378-16h45.24756a24.03824 24.03824 0 0 1 -22.62378 16zm44.686-32h-89.372l-16.00024-16h121.37252zm51.314-40a8.00917 8.00917 0 0 1 -8 8h-176a8 8 0 0 1 0-16h176a8.00917 8.00917 0 0 1 8 8zm-24-24h-144v-16h144z"/><path d="m248 16h16v32h-16z"/><path d="m375.764 80.236h32v16h-32z" transform="matrix(.707 -.707 .707 .707 52.353 302.863)"/><path d="m432 216h32v16h-32z"/><path d="m48 216h32v16h-32z"/><path d="m112.236 72.236h16v32h-16z" transform="matrix(.707 -.707 .707 .707 -27.176 110.863)"/></g></svg>