<?xml version="1.0" encoding="iso-8859-1"?>
<!-- Generator: Adobe Illustrator 19.0.0, SVG Export Plug-In . SVG Version: 6.00 Build 0)  -->
<svg version="1.1" id="Capa_1" xmlns="http://www.w3.org/2000/svg" xmlns:xlink="http://www.w3.org/1999/xlink" x="0px" y="0px"
	 viewBox="0 0 454.809 454.809" style="enable-background:new 0 0 454.809 454.809;" xml:space="preserve">
<path style="fill:#DADEE0;" d="M227.405,91.269c-92.16,0-184.32,98.422-184.32,194.56c0,19.732,3.523,37.806,9.928,54.113
	c-12.324,10.332-20.168,25.825-20.168,43.167c0,31.104,25.216,56.32,56.32,56.32c17.065,0,32.323-7.619,42.655-19.61
	c27.868,12.82,60.59,19.61,95.585,19.61c101.801,0,184.32-57.462,184.32-153.6S319.565,91.269,227.405,91.269z"/>
<path style="fill:#1BB7EA;" d="M274.478,56.351c-3.359,10.752-15.324,19.548-26.588,19.548h-40.96
	c-11.264,0-23.229-8.796-26.588-19.548l-13.379-42.824c-3.359-10.752,2.488-16.241,13.005-12.196l28.329,10.895
	c10.516,4.045,27.715,4.045,38.231,0l28.329-10.895c10.516-4.045,16.363,1.444,13.005,12.196L274.478,56.351z"/>
<path style="fill:#DADEE0;" d="M401.797,339.942c-14.075,35.84-42.245,63.058-78.807,79.877c10.332,11.991,25.59,19.61,42.655,19.61
	c31.104,0,56.32-25.216,56.32-56.32C421.965,365.768,414.121,350.274,401.797,339.942z"/>
<polyline style="fill:#FFFFFF;" points="326.139,454.809 326.129,454.809 326.134,454.809 326.139,454.809 "/>
<g>
	<path style="fill:#C7CED2;" d="M198.088,229.463c0.041,5.258,1.27,8.489,3.22,11.182c1.966,2.673,5.002,4.941,9.185,6.917
		c3.932,1.884,8.765,3.374,14.029,4.772v-47.089c-4.137,0.384-7.634,1.198-10.557,2.309c-4.086,1.562-7.101,3.651-9.416,6.011
		C199.962,218.245,198.088,224.348,198.088,229.463z"/>
	<path style="fill:#C7CED2;" d="M270.5,204.329l-0.072-0.01c2.816,2.811,5.13,5.98,6.789,9.482
		c2.314,4.844,3.436,10.184,3.436,15.667c0,3.958-3.21,7.168-7.168,7.168c-3.958,0-7.168-3.21-7.168-7.168
		c-0.005-3.564-0.707-6.702-2.027-9.487c-1.336-2.785-3.308-5.263-6.124-7.455c-4.06-3.169-10.117-5.693-18.273-6.845v50.555
		c1.126,0.297,2.253,0.589,3.379,0.901c8.054,2.278,16.108,5.094,22.999,10.153c3.922,2.888,7.424,6.584,9.953,11.192
		c2.903,5.263,4.444,11.597,4.429,18.79c0.01,6.897-1.434,13.107-4.275,18.355c-2.826,5.253-6.994,9.416-11.837,12.436
		c-7.148,4.429-15.58,6.641-24.653,7.532v8.059c0,4.239-3.441,7.68-7.68,7.68c-4.244,0-7.68-3.441-7.68-7.68v-7.777
		c-11.095-0.855-20.588-4.444-27.715-10.399l103.199,103.199c48.778-15.467,86.717-47.145,103.014-91.822L270.5,204.329z"/>
</g>
<path style="fill:#1F4254;" d="M266.266,267.289c-6.892-5.059-14.945-7.875-22.999-10.153c-1.126-0.312-2.253-0.604-3.379-0.901
	V205.68c8.161,1.152,14.213,3.676,18.273,6.845c2.821,2.191,4.792,4.669,6.124,7.455c1.326,2.785,2.028,5.919,2.028,9.487
	c0,3.958,3.21,7.168,7.168,7.168s7.168-3.21,7.168-7.168c0-5.484-1.121-10.824-3.436-15.667c-3.461-7.286-9.61-13.266-17.669-17.172
	c-5.632-2.744-12.237-4.5-19.666-5.35v-7.844c0-4.244-3.441-7.68-7.68-7.68c-4.244,0-7.68,3.436-7.68,7.68v7.429
	c-13.373,0.973-23.537,5.801-30.223,12.692c-7.552,7.757-10.542,17.475-10.547,25.917c-0.015,6.723,1.597,12.718,4.603,17.603
	c2.621,4.275,6.19,7.603,10.107,10.173c6.881,4.495,14.822,6.948,22.784,9.073c1.091,0.287,2.181,0.558,3.277,0.829v54.231
	c-8.131-0.824-14.413-3.389-18.647-6.973c-5.1-4.378-7.736-10.025-7.788-17.137c0-3.958-3.21-7.168-7.163-7.168
	c-3.958,0-7.163,3.205-7.163,7.168h-0.005c-0.051,10.972,4.603,21.151,12.867,28.078c7.148,6.042,16.722,9.672,27.904,10.532v7.777
	c0,4.239,3.436,7.68,7.68,7.68c4.239,0,7.68-3.441,7.68-7.68v-8.059c9.073-0.891,17.51-3.103,24.653-7.532
	c4.838-3.021,9.011-7.183,11.837-12.436c2.842-5.248,4.285-11.459,4.275-18.355c0.015-7.194-1.526-13.527-4.429-18.79
	C273.69,273.874,270.182,270.177,266.266,267.289z M210.493,247.567c-4.183-1.976-7.219-4.244-9.185-6.917
	c-1.951-2.693-3.18-5.924-3.22-11.182c0-5.12,1.869-11.218,6.467-15.892c2.314-2.36,5.33-4.449,9.416-6.011
	c2.918-1.111,6.42-1.925,10.557-2.309v47.089C219.259,250.936,214.426,249.451,210.493,247.567z M263.762,308.818
	c-2.35,4.311-6.185,7.388-12.032,9.641c-3.369,1.285-7.419,2.15-11.843,2.683v-50.043c5.156,1.464,9.887,3.082,13.737,5.151
	c4.137,2.196,7.183,4.716,9.272,7.869c2.063,3.164,3.405,7.132,3.425,13.153C266.312,302.233,265.323,305.91,263.762,308.818z"/>
<g>
</g>
<g>
</g>
<g>
</g>
<g>
</g>
<g>
</g>
<g>
</g>
<g>
</g>
<g>
</g>
<g>
</g>
<g>
</g>
<g>
</g>
<g>
</g>
<g>
</g>
<g>
</g>
<g>
</g>
</svg>
